<?xml version="1.0" encoding="utf-8"?>
<!-- Generator: Adobe Illustrator 21.0.2, SVG Export Plug-In . SVG Version: 6.00 Build 0)  -->
<svg version="1.1" id="Ebene_1" xmlns="http://www.w3.org/2000/svg" xmlns:xlink="http://www.w3.org/1999/xlink" x="0px" y="0px"
	 viewBox="0 0 451 40" style="enable-background:new 0 0 451 40;" xml:space="preserve">
<style type="text/css">
	.st0{fill:#323031;}
	.st1{fill:#3E96DB;}
</style>
<path class="st0" d="M16.9,34.7c-6.3,0-11.7-4.7-12.3-10.8c-0.3-3.4,0.7-6.7,3-9.3c2.3-2.5,5.5-4,8.8-4c6.6,0.1,11.9,5.5,11.9,12.1
	v12.1c-2.6,0-5.5,0-5.7,0H16.9z M16.6,6L16,6l-0.8,0l-0.3,0.1v0C7.1,6.9,0.8,13.4,0.1,21.2H0l0,2.6l0,0.3h0
	c0.8,8.4,7.9,15,16.3,15.2l16.6,0V22.7C33,13.6,25.7,6.2,16.6,6"/>
<path class="st0" d="M167.6,5.8c-9.5,0-17.2,7.7-17.2,17.2v16.3h4.6V23c0-6.9,5.6-12.5,12.5-12.5c6.9,0,12.5,5.6,12.5,12.5v16.3h4.6
	V23C184.8,13.5,177.1,5.8,167.6,5.8"/>
<path class="st0" d="M63.2,31.2c-2.3,2.3-5.3,3.5-8.5,3.5c-3.2,0-6.3-1.3-8.5-3.5c-4.7-4.7-4.7-12.3-0.1-16.9
	c2.3-2.2,5.3-3.5,8.4-3.5c3.2,0,6.2,1.3,8.5,3.5l1,1l3.2-3.2l-1-1C63.1,8,58.9,6.2,54.5,6.2c-3.9,0-7.7,1.4-10.7,3.9l-0.1,0L42,11.8
	L41.8,12l0,0c-5.4,6.6-5,16.4,1,22.4c3.1,3.1,7.3,4.9,11.8,4.9s8.6-1.7,11.8-4.9l1-1l-3.2-3.2L63.2,31.2z"/>
<path class="st0" d="M102.2,34.7c-6.7,0-12.1-5.4-12.1-12.1s5.4-12.1,12.1-12.1c6.7,0,12.1,5.4,12.1,12.1S108.9,34.7,102.2,34.7
	 M102.2,5.9c-9.2,0-16.7,7.5-16.7,16.7c0,9.2,7.5,16.7,16.7,16.7s16.7-7.5,16.7-16.7C118.9,13.4,111.4,5.9,102.2,5.9"/>
<rect x="140.1" y="5.9" class="st0" width="4.6" height="33.4"/>
<path class="st0" d="M76.7,9.7c-2.8,2.1-4.5,5.4-4.5,9v20.6h4.6V18.7c0-2.1,1-4.1,2.7-5.3l4.2-3.1l-2.7-3.7L76.7,9.7z"/>
<path class="st0" d="M128.5,27.8V0.4h-4.6v27.3c0,3.5,1.7,6.9,4.5,9l4.2,3.1l2.7-3.7l-4.2-3.1C129.5,31.9,128.5,29.9,128.5,27.8"/>
<path class="st1" d="M209.5,19.5L197,7c-0.7-0.7-1.7-1.1-2.7-1.1H189l16.3,16.3c0.2,0.2,0.2,0.5,0,0.7L189,39.3h5.3
	c1,0,2-0.4,2.7-1.1l12.5-12.5C211.2,24,211.2,21.2,209.5,19.5"/>
<path class="st0" d="M213.7,19.6C213.7,19.6,213.7,19.6,213.7,19.6l13.8-13.8h-6.8l-9.8,9.8l0.9,0.9
	C212.6,17.4,213.2,18.5,213.7,19.6"/>
<path class="st0" d="M211.7,28.7l-0.8,0.8l9.7,9.7h6.8l-13.7-13.7C213.3,26.6,212.6,27.7,211.7,28.7"/>
<path class="st1" d="M448.2,19.3c0.5,0.6,0.7,1.3,0.7,2.2v0.3h-5.6l0-0.1c0.1-0.9,0.4-1.7,1-2.3c0.5-0.6,1.2-0.9,1.9-0.9
	C447.1,18.4,447.8,18.7,448.2,19.3 M449.1,28.9c0.7-0.3,1.3-0.6,1.7-1.1l-0.9-1.4c-0.4,0.4-0.9,0.7-1.5,0.9c-0.6,0.2-1.2,0.3-2,0.3
	c-1,0-1.8-0.4-2.4-1.1c-0.6-0.8-0.9-1.7-0.9-2.9l0-0.1h7.9v-1.4c0-1.6-0.4-3-1.3-4c-0.8-1-2.1-1.5-3.7-1.5c-1.4,0-2.6,0.6-3.7,1.7
	c-1,1.1-1.5,2.6-1.5,4.3v0.5c0,1.8,0.5,3.3,1.5,4.4c1,1.1,2.3,1.7,4,1.7C447.5,29.3,448.4,29.2,449.1,28.9 M431.4,26.3
	c-0.5-0.8-0.7-1.9-0.7-3.1v-0.5c0-1.2,0.2-2.2,0.7-3.1c0.5-0.8,1.3-1.3,2.5-1.3c0.8,0,1.5,0.3,2,0.8c0.5,0.5,0.8,1.2,0.8,1.9h2
	l0-0.1c0-1.2-0.4-2.3-1.3-3.1c-0.9-0.8-2.1-1.3-3.5-1.3c-1.8,0-3.1,0.6-4.1,1.7c-0.9,1.2-1.4,2.6-1.4,4.3v0.5c0,1.7,0.5,3.2,1.4,4.4
	c0.9,1.2,2.3,1.7,4.1,1.7c1.3,0,2.4-0.4,3.4-1.2c1-0.8,1.4-1.7,1.4-2.8l0-0.1h-2c0,0.7-0.3,1.2-0.8,1.7c-0.6,0.5-1.2,0.7-1.9,0.7
	C432.8,27.6,431.9,27.2,431.4,26.3 M425.4,11.6h-2.2v2.3h2.2V11.6z M425.4,16.9h-2.2v12.2h2.2V16.9z M411.3,22.9
	c0-1.3,0.3-2.3,0.8-3.2c0.5-0.8,1.3-1.3,2.4-1.3c1.1,0,1.9,0.4,2.4,1.3c0.6,0.8,0.8,1.9,0.8,3.2v0.2c0,1.3-0.3,2.4-0.8,3.2
	c-0.5,0.8-1.3,1.3-2.4,1.3c-1.1,0-1.9-0.4-2.4-1.3c-0.5-0.8-0.8-1.9-0.8-3.2V22.9z M409.1,23.1c0,1.8,0.5,3.3,1.5,4.4
	c1,1.2,2.3,1.7,4,1.7s3-0.6,4-1.7c1-1.2,1.5-2.6,1.5-4.5v-0.2c0-1.8-0.5-3.3-1.5-4.5c-1-1.2-2.3-1.7-4-1.7c-1.7,0-3,0.6-4,1.7
	c-1,1.2-1.5,2.6-1.5,4.4V23.1z M399.2,16.9h-2.3l4.5,12.2h1.7l4.5-12.2h-2.3l-2.8,8.6l-0.2,0.9h-0.1l-0.2-0.9L399.2,16.9z
	 M386.4,19.3c0.5,0.6,0.7,1.3,0.7,2.2v0.3h-5.6l0-0.1c0.1-0.9,0.4-1.7,1-2.3c0.5-0.6,1.2-0.9,1.9-0.9
	C385.3,18.4,386,18.7,386.4,19.3 M387.3,28.9c0.7-0.3,1.3-0.6,1.7-1.1l-0.9-1.4c-0.4,0.4-0.9,0.7-1.5,0.9c-0.6,0.2-1.2,0.3-2,0.3
	c-1,0-1.8-0.4-2.4-1.1c-0.6-0.8-0.9-1.7-0.9-2.9l0-0.1h7.9v-1.4c0-1.6-0.4-3-1.3-4c-0.8-1-2.1-1.5-3.7-1.5c-1.4,0-2.6,0.6-3.7,1.7
	c-1,1.1-1.5,2.6-1.5,4.3v0.5c0,1.8,0.5,3.3,1.5,4.4c1,1.1,2.3,1.7,4,1.7C385.7,29.3,386.6,29.2,387.3,28.9 M366.3,16.9v12.2h2.2
	v-8.9c0.3-0.5,0.7-1,1.2-1.3c0.5-0.3,1.1-0.5,1.7-0.5c0.9,0,1.5,0.2,1.9,0.7c0.4,0.5,0.6,1.2,0.6,2.3v7.6h2.2v-7.7
	c0-1.6-0.4-2.8-1.1-3.6c-0.7-0.8-1.7-1.2-3-1.2c-0.8,0-1.5,0.2-2.1,0.5c-0.6,0.4-1.1,0.9-1.5,1.5l-0.2-1.8H366.3z M354.7,22.9
	c0-1.3,0.3-2.3,0.8-3.2c0.5-0.8,1.3-1.3,2.4-1.3c1.1,0,1.9,0.4,2.4,1.3c0.6,0.8,0.8,1.9,0.8,3.2v0.2c0,1.3-0.3,2.4-0.8,3.2
	c-0.5,0.8-1.3,1.3-2.4,1.3c-1.1,0-1.9-0.4-2.4-1.3c-0.5-0.8-0.8-1.9-0.8-3.2V22.9z M352.5,23.1c0,1.8,0.5,3.3,1.5,4.4
	c1,1.2,2.3,1.7,4,1.7s3-0.6,4-1.7c1-1.2,1.5-2.6,1.5-4.5v-0.2c0-1.8-0.5-3.3-1.5-4.5c-1-1.2-2.3-1.7-4-1.7c-1.7,0-3,0.6-4,1.7
	c-1,1.2-1.5,2.6-1.5,4.4V23.1z M336,11.6h-2.2v17.5h2.2v-9c0.3-0.5,0.7-0.9,1.2-1.2c0.5-0.3,1.1-0.4,1.7-0.4c0.9,0,1.5,0.2,1.9,0.7
	c0.4,0.5,0.6,1.2,0.6,2.2v7.6h2.2v-7.6c0-1.6-0.4-2.8-1.1-3.6c-0.7-0.8-1.7-1.2-3-1.2c-0.7,0-1.4,0.2-2,0.5
	c-0.6,0.3-1.1,0.8-1.5,1.4V11.6z M326.3,14v2.9h-1.9v1.6h1.9V26c0,1.2,0.3,2,0.8,2.6c0.5,0.5,1.2,0.8,2.1,0.8c0.3,0,0.6,0,1-0.1
	c0.3-0.1,0.6-0.2,0.7-0.3l-0.3-1.5c-0.1,0-0.3,0.1-0.4,0.1c-0.2,0-0.3,0-0.4,0c-0.4,0-0.7-0.1-0.9-0.3s-0.4-0.6-0.4-1.2v-7.4h2.3
	v-1.6h-2.3V14H326.3z M321.9,11.6h-2.2v2.3h2.2V11.6z M321.9,16.9h-2.2v12.2h2.2V16.9z M303,16.9h-2.2l3.5,12.2h1.8l2.3-7.4l0.5-2.1
	l0.1,0l0.5,2.1l2.4,7.4h1.8l3.5-12.2h-2.2l-1.9,7.7l-0.3,1.6h-0.1l-0.3-1.6l-2.4-7.7h-1.8l-2.4,7.7l-0.3,1.5h-0.1l-0.3-1.5L303,16.9
	z M291.5,29.1h2.6l-4.8-6.6l4.2-5.5h-2.7l-3.3,4.8h-1.4V11.6h-2.2v17.5h2.2v-5.6h1.4L291.5,29.1z M273.3,27
	c-0.3-0.3-0.5-0.7-0.5-1.3c0-0.6,0.3-1.1,0.8-1.6c0.5-0.4,1.2-0.7,2.1-0.7h2.5v2c-0.2,0.5-0.6,1-1.3,1.4s-1.4,0.6-2.2,0.6
	C274.1,27.5,273.6,27.3,273.3,27 M280.7,29.1c-0.1-0.4-0.2-0.8-0.2-1.2c0-0.4-0.1-0.8-0.1-1.3v-5.9c0-1.3-0.4-2.3-1.3-3
	c-0.8-0.7-1.9-1.1-3.3-1.1c-1.4,0-2.5,0.4-3.4,1.1c-0.9,0.7-1.3,1.5-1.3,2.4l0,0.1h2.1c0-0.5,0.2-0.9,0.7-1.3c0.4-0.4,1-0.5,1.7-0.5
	c0.8,0,1.4,0.2,1.8,0.6c0.4,0.4,0.7,1,0.7,1.7V22h-2.4c-1.6,0-2.9,0.3-3.8,1c-0.9,0.7-1.4,1.6-1.4,2.7c0,1.1,0.3,2,1,2.7
	c0.7,0.6,1.6,1,2.9,1c0.8,0,1.5-0.2,2.1-0.6c0.7-0.4,1.2-0.9,1.6-1.5c0,0.3,0,0.6,0.1,0.8c0,0.3,0.1,0.6,0.2,1H280.7z M265.4,19.3
	c0.5,0.6,0.7,1.3,0.7,2.2v0.3h-5.6l0-0.1c0.1-0.9,0.4-1.7,1-2.3c0.5-0.6,1.2-0.9,1.9-0.9C264.2,18.4,264.9,18.7,265.4,19.3
	 M266.2,28.9c0.7-0.3,1.3-0.6,1.7-1.1l-0.9-1.4c-0.4,0.4-0.9,0.7-1.5,0.9c-0.6,0.2-1.2,0.3-2,0.3c-1,0-1.8-0.4-2.4-1.1
	c-0.6-0.8-0.9-1.7-0.9-2.9l0-0.1h7.9v-1.4c0-1.6-0.4-3-1.3-4c-0.8-1-2.1-1.5-3.7-1.5c-1.4,0-2.6,0.6-3.7,1.7c-1,1.1-1.5,2.6-1.5,4.3
	v0.5c0,1.8,0.5,3.3,1.5,4.4c1,1.1,2.3,1.7,4,1.7C264.6,29.3,265.5,29.2,266.2,28.9 M253.4,23.5c0,1.2-0.3,2.2-0.8,3
	c-0.5,0.8-1.3,1.2-2.4,1.2c-0.7,0-1.2-0.1-1.7-0.4c-0.4-0.3-0.8-0.7-1.1-1.2v-5.9c0.3-0.5,0.6-0.9,1.1-1.2c0.5-0.3,1-0.4,1.6-0.4
	c1.1,0,1.9,0.4,2.4,1.3c0.5,0.9,0.8,2,0.8,3.4V23.5z M255.6,23.2c0-2-0.4-3.5-1.3-4.7c-0.8-1.2-2-1.8-3.5-1.8
	c-0.8,0-1.5,0.2-2.1,0.5c-0.6,0.3-1.1,0.8-1.5,1.3l-0.3-1.6h-1.7v16.8h2.2v-5.9c0.4,0.5,0.9,0.9,1.4,1.1c0.6,0.3,1.2,0.4,2,0.4
	c1.5,0,2.6-0.5,3.5-1.6c0.8-1.1,1.3-2.5,1.3-4.2V23.2z M239.4,27.1c-0.4,0.3-1.1,0.5-1.8,0.5c-0.7,0-1.4-0.2-1.9-0.5
	c-0.5-0.4-0.8-0.9-0.9-1.7h-2.1l0,0.1c0,1,0.4,2,1.3,2.8s2.1,1.2,3.7,1.2c1.4,0,2.5-0.3,3.4-1c0.9-0.7,1.3-1.5,1.3-2.6
	c0-1-0.4-1.7-1.1-2.3c-0.8-0.6-1.9-1-3.4-1.3c-1-0.2-1.7-0.5-2.1-0.7c-0.3-0.3-0.5-0.7-0.5-1.1c0-0.5,0.2-0.9,0.6-1.2
	c0.4-0.3,1-0.5,1.8-0.5c0.7,0,1.3,0.2,1.8,0.6c0.4,0.4,0.7,0.9,0.7,1.4h2.1l0-0.1c0-1-0.4-1.9-1.2-2.7c-0.8-0.7-2-1.1-3.4-1.1
	c-1.3,0-2.4,0.3-3.3,1c-0.8,0.7-1.3,1.5-1.3,2.5c0,1,0.4,1.7,1.1,2.3c0.7,0.6,1.9,1,3.3,1.3c1,0.2,1.7,0.5,2.1,0.8
	c0.4,0.3,0.6,0.7,0.6,1.2C240.1,26.4,239.8,26.8,239.4,27.1"/>
</svg>
